#define ant_width 9
#define ant_height 14
static unsigned char ant_bits[] = {
   0x38, 0x00, 0x44, 0x00, 0x82, 0x00, 0x39, 0x01, 0x39, 0x01, 0x92, 0x00,
   0x54, 0x00, 0x10, 0x00, 0x10, 0x00, 0x10, 0x00, 0x10, 0x00, 0x10, 0x00,
   0x7c, 0x00, 0xfe, 0x00 };
